<svg xmlns="http://www.w3.org/2000/svg" width="60" height="60" viewBox="0 0 60 60">
  <path id="Path_1520" data-name="Path 1520" d="M30,0A30,30,0,1,1,0,30,30,30,0,0,1,30,0Z" fill="#fff"/>
  <g id="black-and-white-credit-cards" transform="translate(12.909 13)">
    <g id="Group_367" data-name="Group 367" transform="translate(1.091)">
      <path id="Path_1415" data-name="Path 1415" d="M33.178,15.775,18.285.881a3,3,0,0,0-4.249,0L5.881,9.035a3.049,3.049,0,0,0,0,4.286L7.232,14.71H10.35L7.44,11.762a.835.835,0,0,1-.234-.585A.814.814,0,0,1,7.44,10.6L8.517,9.559l5.118,5.151h4.909L10.971,7.1,15.6,2.457a.813.813,0,0,1,.566-.242.789.789,0,0,1,.566.229L31.62,17.336a.794.794,0,0,1,.236.565.843.843,0,0,1-.258.566l-.844.824v3.118l2.4-2.383A3.006,3.006,0,0,0,33.178,15.775Z" transform="translate(-2.048 0)" fill="#bb88f2"/>
      <path id="Path_1416" data-name="Path 1416" d="M25.233,21.328H4.169a3.061,3.061,0,0,0-3.078,3v7.967H28.2V24.324A2.966,2.966,0,0,0,25.233,21.328ZM8.452,29.578a2.177,2.177,0,0,1-1.513-.612,2.186,2.186,0,1,1,0-3.151,2.186,2.186,0,1,1,1.513,3.762Z" transform="translate(-1.091 -5.222)" fill="#bb88f2"/>
      <path id="Path_1417" data-name="Path 1417" d="M1.091,40.509a3.075,3.075,0,0,0,3.078,3.013H25.233A2.981,2.981,0,0,0,28.2,40.509v-.177H1.091Z" transform="translate(-1.091 -9.874)" fill="#bb88f2"/>
    </g>
  </g>
</svg>
