<svg xmlns="http://www.w3.org/2000/svg" xmlns:xlink="http://www.w3.org/1999/xlink" width="85.178" height="85.751" viewBox="0 0 85.178 85.751">
  <defs>
    <clipPath id="clip-path">
      <rect width="85.178" height="85.751" fill="none"/>
    </clipPath>
    <linearGradient id="linear-gradient" x1="0.868" y1="0.958" x2="0.236" y2="0.228" gradientUnits="objectBoundingBox">
      <stop offset="0" stop-color="#fff"/>
      <stop offset="1" stop-color="#006b9b"/>
    </linearGradient>
    <linearGradient id="linear-gradient-2" x1="0.034" y1="0.112" x2="0.799" y2="0.772" xlink:href="#linear-gradient"/>
    <linearGradient id="linear-gradient-3" x1="0.5" x2="0.5" y2="1" gradientUnits="objectBoundingBox">
      <stop offset="0" stop-color="#fff"/>
      <stop offset="1" stop-color="#ffdef1"/>
    </linearGradient>
  </defs>
  <g id="aircraft" clip-path="url(#clip-path)">
    <g id="Group_8" data-name="Group 8" transform="translate(-2.659 11.69) rotate(-17)">
      <path id="Path_26" data-name="Path 26" d="M1.86,77.31,0,75.45l1.86-1.86,1.86,1.86Zm4.754-4.754L4.754,70.7,7.545,67.9l1.86,1.86ZM12.3,66.975l-1.86-1.86,2.791-2.791,1.86,1.86Zm5.581-5.684-1.86-1.86,2.791-2.791,1.86,1.86Zm5.684-5.685-1.86-1.86L24.5,50.954l1.86,1.86Zm5.685-5.684-1.86-1.86L30.18,45.27l1.86,1.86Zm5.684-5.685-1.86-1.86,2.791-2.791,1.86,1.86Zm5.685-5.581-1.964-1.964L41.446,33.9l1.86,1.86ZM46.3,32.971l-1.86-1.86,2.791-2.791,1.86,1.86Zm5.581-5.685-1.86-1.86,2.791-2.791,1.86,1.86ZM57.569,21.6l-1.86-1.86L58.5,16.95l1.86,1.86Zm5.685-5.685-1.86-1.86,2.791-2.791,1.86,1.861Z" transform="translate(0)" fill="#edf7ff"/>
      <path id="Path_27" data-name="Path 27" d="M3.928,9.405,0,5.478,4.858.62a2.121,2.121,0,0,1,3,0l.93.827a2.121,2.121,0,0,1,0,3Z" transform="translate(58.809 50.644)" fill="#d5ffda"/>
      <path id="Path_28" data-name="Path 28" d="M3.928,9.405,0,5.478,4.858.62a2.121,2.121,0,0,1,3,0l.827.827a2.121,2.121,0,0,1,0,3Z" transform="translate(56.329 40.516)" fill="#edf7ff"/>
      <path id="Path_29" data-name="Path 29" d="M0,5.478,3.928,9.405,8.785,4.548a2.121,2.121,0,0,0,0-3L7.958.62a2.121,2.121,0,0,0-3,0Z" transform="translate(17.261 9.095)" fill="#d5ffda"/>
      <path id="Path_30" data-name="Path 30" d="M0,5.374,3.928,9.3,8.785,4.444a2.121,2.121,0,0,0,0-3L7.958.62a2.121,2.121,0,0,0-3,0Z" transform="translate(27.389 11.679)" fill="#edf7ff"/>
    </g>
    <path id="Path_31" data-name="Path 31" d="M28.526,26.459l-2.067,2.067L0,2.067,2.067,0,20.878,7.648Z" transform="translate(11.535 58.472) rotate(-17)" fill="#e2deff"/>
    <path id="Path_32" data-name="Path 32" d="M17.364,44.236,0,13.643,13.643,0,21.6,40.1Z" transform="translate(47.913 27.571) rotate(-17)" fill="url(#linear-gradient)"/>
    <path id="Path_33" data-name="Path 33" d="M0,4.238,30.593,21.6,44.236,7.959,4.134,0Z" transform="translate(3.811 22.249) rotate(-17)" fill="url(#linear-gradient-2)"/>
    <g id="Group_10" data-name="Group 10" transform="translate(6.875 21.312) rotate(-17)">
      <path id="Path_34" data-name="Path 34" d="M0,1.034l38.138,9.819,2.894-2.894L.93,0Z" fill="#d5ffda"/>
      <path id="Path_35" data-name="Path 35" d="M9.819,41.032,0,2.894,2.894,0l7.958,40.1Z" transform="translate(48.164 17.984)" fill="#d5ffda"/>
    </g>
    <path id="Path_36" data-name="Path 36" d="M59,4.7A29.2,29.2,0,0,1,50.83,21.44L7.214,58.028a4.316,4.316,0,0,1-5.891-.31,4.316,4.316,0,0,1-.31-5.891L37.6,8.211A28.281,28.281,0,0,1,54.344.046a3.977,3.977,0,0,1,3.411,1.137A4.054,4.054,0,0,1,59,4.7Z" transform="translate(9.009 17.262) rotate(-17)" fill="url(#linear-gradient-3)"/>
    <path id="Path_37" data-name="Path 37" d="M8.062,9.715a1.173,1.173,0,0,1-.31-.827A6.661,6.661,0,0,0,1.137,2.274,1.147,1.147,0,0,1,0,1.137,1.147,1.147,0,0,1,1.137,0a9,9,0,0,1,8.992,8.992,1.147,1.147,0,0,1-1.137,1.137A1.311,1.311,0,0,1,8.062,9.715Z" transform="translate(51.873 10.474) rotate(-17)" fill="#64798a"/>
  </g>
</svg>
