<svg xmlns="http://www.w3.org/2000/svg" width="261.741" height="157.751" viewBox="0 0 261.741 157.751">
  <g id="Group_756" data-name="Group 756" transform="translate(0 0)" opacity="0.47">
    <path id="Path_1543" data-name="Path 1543" d="M261.741,3.214v148.85q-.525.315-1.05.6c-.36.2-.72.39-1.09.57-.31.17-.63.32-.95.47-.65.32-1.31.61-1.98.89-.34.14-.67.27-1.02.4-.19.07-.39.14-.58.22q-.585.225-1.17.42a41.133,41.133,0,0,1-8.64,1.87h-.05c-.1.01-.2.03-.3.04-.12.01-.24.03-.36.03-1.04.1-2.11.15-3.18.17-.54.01-1.08.01-1.61-.01-.36-.01-.72-.03-1.08-.05-.02.01-.04,0-.05,0-.4-.01-.8-.04-1.2-.08q-1.155-.075-2.28-.24c-.17-.02-.35-.05-.52-.08-.12-.01-.24-.03-.36-.04l-.47-.09c-.28-.04-.56-.1-.83-.15s-.53-.1-.78-.16a2.379,2.379,0,0,1-.26-.05c-.08-.02-.15-.04-.22-.06h-.04c-.46-.1-.93-.22-1.39-.34-.27-.07-.53-.14-.79-.22-.29-.08-.57-.15-.84-.24-.15-.05-.3-.09-.45-.14-.33-.11-.67-.22-1.01-.34s-.67-.23-1.01-.36-.66-.25-.99-.39c-.26-.1-.52-.21-.77-.32a4.524,4.524,0,0,1-.5-.23c-.27-.11-.55-.24-.82-.37-.44-.2-.86-.41-1.29-.64-.16-.07-.31-.16-.47-.24-.31-.16-.61-.33-.91-.49a42.245,42.245,0,0,1-4.72-3.11c-.42-.32-.83-.65-1.24-.99-.3-.22-.58-.47-.87-.72-.23-.21-.48-.42-.72-.64-.59-.54-1.17-1.09-1.73-1.67l-.32-.32c-.09-.1-.19-.21-.29-.31-.13-.15-.28-.29-.4-.45-.22-.24-.44-.48-.65-.73-.2-.22-.39-.44-.58-.67-.44-.52-.86-1.05-1.26-1.58-.16-.21-.32-.43-.47-.66-.17-.23-.34-.46-.51-.7-.24-.34-.46-.68-.69-1.03-.58-.88-1.12-1.79-1.63-2.72a34.472,34.472,0,0,1-42.37,3.75c-.56.76-1.15,1.48-1.77,2.18-.22.27-.45.51-.69.78-.38.41-.77.83-1.18,1.23-.32.31-.65.64-.99.95s-.67.61-1.02.91l-.19.16c-.29.25-.59.5-.89.74-.37.29-.74.57-1.1.85a37.868,37.868,0,0,1-22.11,7.48,41.244,41.244,0,0,1-6.8-.51,38.08,38.08,0,0,1-21.9-11.99l-.01-.01a33.547,33.547,0,0,1-38.3-4.34,25.022,25.022,0,0,1-41.08-3.84,14.939,14.939,0,0,1-8.62,2.86,15.106,15.106,0,1,1,8.67-27.3,24.946,24.946,0,0,1,32.57-10.34,33.55,33.55,0,0,1,30.24-20.03,33.981,33.981,0,0,1,11.36,1.81,34.667,34.667,0,0,1-.56-5.73,35.43,35.43,0,0,1,60.1-25.91,34.65,34.65,0,0,1,20.16-9.79,22.035,22.035,0,0,1,26.49-14.09A44.9,44.9,0,0,1,244.431,0a44.326,44.326,0,0,1,10.88,1.18A43.7,43.7,0,0,1,261.741,3.214Z" fill="#fff"/>
    <path id="Path_1544" data-name="Path 1544" d="M255.311,1.184a43.7,43.7,0,0,1,6.43,2.03v4.45A49.832,49.832,0,0,0,255.311,1.184Z" fill="#d7f0fc"/>
    <path id="Path_1545" data-name="Path 1545" d="M261.741,45.934v106.13q-.525.315-1.05.6c-.36.2-.72.39-1.09.57-.31.17-.63.32-.95.47-.65.32-1.31.61-1.98.89-.34.14-.67.27-1.02.4-.19.07-.39.14-.58.22q-.585.225-1.17.42a41.133,41.133,0,0,1-8.64,1.87h-.05c-.1.01-.2.03-.3.04-.12.01-.24.03-.36.03-1.04.1-2.11.15-3.18.17-.54.01-1.08.01-1.61-.01-.36-.01-.72-.03-1.08-.05-.02.01-.04,0-.05,0-.4-.01-.8-.04-1.2-.08q-1.155-.075-2.28-.24c-.17-.02-.35-.05-.52-.08-.12-.01-.24-.03-.36-.04l-1.3-.24c-.26-.04-.53-.1-.78-.16a2.379,2.379,0,0,1-.26-.05c-.08-.02-.15-.04-.22-.06h-.04c-.46-.1-.93-.22-1.39-.34-.27-.07-.53-.14-.79-.22-.29-.08-.57-.15-.84-.24-.15-.05-.3-.09-.45-.14-.33-.11-.67-.22-1.01-.34s-.67-.23-1.01-.36-.66-.25-.99-.39c-.26-.1-.52-.21-.77-.32a4.524,4.524,0,0,1-.5-.23c-.27-.11-.55-.24-.82-.37-.44-.2-.86-.41-1.29-.64-.16-.07-.31-.16-.47-.24-.31-.16-.61-.33-.91-.49a42.245,42.245,0,0,1-4.72-3.11c-.42-.32-.83-.65-1.24-.99-.3-.22-.58-.47-.87-.72-.23-.21-.48-.42-.72-.64-.59-.54-1.17-1.09-1.73-1.67l-.32-.32c-.09-.1-.19-.21-.29-.31-.13-.15-.28-.29-.4-.45-.22-.24-.44-.48-.65-.73-.2-.22-.39-.44-.58-.67-.44-.52-.86-1.05-1.26-1.58-.16-.21-.32-.43-.47-.66-.17-.23-.34-.46-.51-.7-.24-.34-.46-.68-.69-1.03-.58-.88-1.12-1.79-1.63-2.72a34.472,34.472,0,0,1-42.37,3.75c-.56.76-1.15,1.48-1.77,2.18-.22.27-.45.51-.69.78-.38.41-.77.83-1.18,1.23-.32.31-.65.64-.99.95s-.67.61-1.02.91l-.19.16c-.29.25-.59.5-.89.74-.37.29-.74.57-1.1.85a37.868,37.868,0,0,1-22.11,7.48,41.244,41.244,0,0,1-6.8-.51,38.08,38.08,0,0,1-21.9-11.99c.37.17,9.45,4.44,18.33-.3-.03-.43-.06-.87-.06-1.31a28.672,28.672,0,0,1,33.34-28.67,25.312,25.312,0,0,1-.76-5.76,25.006,25.006,0,0,1,42.02-18.68,32.049,32.049,0,0,1,20.23-9.81,34.137,34.137,0,0,1,39.23-25.5A30.636,30.636,0,0,1,261.741,45.934Z" fill="#d7f0fc"/>
    <path id="Path_1546" data-name="Path 1546" d="M256.811,114.074a23.759,23.759,0,0,1,4.93-14.7v52.69q-.525.315-1.05.6c-.36.2-.72.39-1.09.57-.31.17-.63.32-.95.47-.65.32-1.31.61-1.98.89-.34.14-.67.27-1.02.4-.19.07-.39.14-.58.22q-.585.225-1.17.42a41.133,41.133,0,0,1-8.64,1.87c-.12.01-.23.03-.35.04s-.24.03-.36.03c-1.04.1-2.11.15-3.18.17-.54.01-1.08.01-1.61-.01-.36-.01-.72-.03-1.08-.05-.02.01-.04,0-.05,0-.4-.01-.8-.04-1.2-.08q-1.155-.075-2.28-.24c-.17-.02-.35-.05-.52-.08-.56-.08-1.11-.17-1.66-.28-.26-.04-.53-.1-.78-.16a2.379,2.379,0,0,1-.26-.05l-.26-.06c-.46-.1-.93-.22-1.39-.34-.27-.07-.53-.14-.79-.22-.29-.08-.57-.15-.84-.24-.15-.05-.3-.09-.45-.14-.33-.11-.67-.22-1.01-.34s-.67-.23-1.01-.36-.66-.25-.99-.39c-.26-.1-.52-.21-.77-.32a4.524,4.524,0,0,1-.5-.23c-.27-.11-.55-.24-.82-.37-.44-.2-.86-.41-1.29-.64-.16-.07-.31-.16-.47-.24-.31-.16-.61-.33-.91-.49a42.245,42.245,0,0,1-4.72-3.11c-.42-.32-.83-.65-1.24-.99-.3-.22-.58-.47-.87-.72-.23-.21-.48-.42-.72-.64-.59-.54-1.17-1.09-1.73-1.67-.2-.21-.41-.42-.61-.63-.13-.15-.28-.29-.4-.45-.22-.24-.44-.48-.65-.73-.2-.22-.39-.44-.58-.67-.44-.52-.86-1.05-1.26-1.58-.34-.45-.66-.9-.98-1.36-.24-.34-.46-.68-.69-1.03-.58-.88-1.12-1.79-1.63-2.72,0,0,13.41,7.01,27.25.99A36.219,36.219,0,0,1,256.811,114.074Z" fill="#b9def0"/>
  </g>
</svg>
