<svg xmlns="http://www.w3.org/2000/svg" width="50.588" height="18" viewBox="0 0 50.588 18">
  <g id="sedan-car-model" transform="translate(0.001 -31.876)">
    <g id="Group_702" data-name="Group 702" transform="translate(-0.001 31.876)">
      <path id="Path_1504" data-name="Path 1504" d="M13.624,52.156a3.817,3.817,0,0,1,3.817,3.817,3.708,3.708,0,0,1-.034.479A3.814,3.814,0,0,1,9.823,56.3c-.009-.107-.016-.216-.016-.326A3.816,3.816,0,0,1,13.624,52.156Zm1.911,2.379-.778.779a1.318,1.318,0,0,1,.139.335h1.1A2.358,2.358,0,0,0,15.535,54.535ZM16,56.31H14.892a1.28,1.28,0,0,1-.139.331l.78.78A2.388,2.388,0,0,0,16,56.31Zm-2.043,2.035a2.378,2.378,0,0,0,1.107-.46l-.776-.776a1.314,1.314,0,0,1-.331.134Zm0-3.641a1.326,1.326,0,0,1,.337.141l.777-.777a2.372,2.372,0,0,0-1.115-.461Zm-.661-1.1a2.376,2.376,0,0,0-1.115.462l.777.777a1.326,1.326,0,0,1,.337-.141V53.6Zm0,4.739v-1.1a1.3,1.3,0,0,1-.331-.135l-.776.776A2.379,2.379,0,0,0,13.293,58.344Zm-1.581-.92.783-.784a1.29,1.29,0,0,1-.142-.33h-1.1A2.381,2.381,0,0,0,11.713,57.424Zm.639-1.775a1.337,1.337,0,0,1,.139-.335l-.779-.779a2.383,2.383,0,0,0-.457,1.114h1.1Z" transform="translate(28.134 -41.79)" fill="#00c9fe"/>
      <path id="Path_1505" data-name="Path 1505" d="M75.633,52.156a3.817,3.817,0,0,1,3.817,3.817,3.706,3.706,0,0,1-.034.479,3.814,3.814,0,0,1-7.585-.154c-.009-.107-.016-.216-.016-.326A3.816,3.816,0,0,1,75.633,52.156Zm1.911,2.379-.777.779a1.318,1.318,0,0,1,.139.335H78A2.364,2.364,0,0,0,77.544,54.535Zm.462,1.775H76.9a1.28,1.28,0,0,1-.139.331l.78.78A2.368,2.368,0,0,0,78.006,56.31Zm-2.043,2.035a2.378,2.378,0,0,0,1.107-.46l-.776-.776a1.314,1.314,0,0,1-.331.134Zm0-3.641a1.326,1.326,0,0,1,.337.141l.777-.777a2.37,2.37,0,0,0-1.115-.461ZM75.3,53.6a2.376,2.376,0,0,0-1.115.462l.777.777A1.29,1.29,0,0,1,75.3,54.7Zm0,4.739v-1.1a1.3,1.3,0,0,1-.331-.135l-.776.776A2.381,2.381,0,0,0,75.3,58.344Zm-1.58-.92.783-.783a1.276,1.276,0,0,1-.142-.331h-1.1A2.376,2.376,0,0,0,73.722,57.424Zm.639-1.775a1.318,1.318,0,0,1,.139-.335l-.779-.779a2.383,2.383,0,0,0-.457,1.114h1.1Z" transform="translate(-65.572 -41.79)" fill="#00c9fe"/>
      <path id="Path_1506" data-name="Path 1506" d="M.894,40.266V37.442a.92.92,0,0,1,.779-.909,37.6,37.6,0,0,0,3.844-.751c1.23-.379,5.982-2.391,7.627-2.769s9.067-2.395,16.175.069c1.2.417,6.613,3,9.795,4.348.937.02,10.211,1.954,10.7,3.279a21.429,21.429,0,0,1,.74,2.3,5.434,5.434,0,0,1-.689,3.067,11.069,11.069,0,0,1-3.618.843c.018-.1.037-.19.05-.286a4.4,4.4,0,0,0,.04-.575,4.584,4.584,0,1,0-9.168,0c0,.13.009.259.018.385a4.461,4.461,0,0,0,.149.825h-.012l-22.755-.458c.01-.059.024-.117.031-.177a4.378,4.378,0,0,0,.04-.575,4.584,4.584,0,0,0-9.169,0c0,.01,0,.018,0,.027l-.1-.008-3.89-.733A3.313,3.313,0,0,1,0,42.371,2.625,2.625,0,0,1,.894,40.266Zm22.573-2.678,8.5.26c-.156-1.273.6-1.559.6-1.559-3.378-3.066-10.187-3.17-10.187-3.17ZM13.929,37.2l7.744.26-.7-4.34a18.345,18.345,0,0,0-6.289.831L13.539,35.8Zm-4.366-.027h2.158l2.157-2.962c-1.618.644-2.914,1.279-3.685,1.68A1.2,1.2,0,0,0,9.563,37.173Z" transform="translate(0.001 -31.876)" fill="#00c9fe"/>
    </g>
  </g>
</svg>
