<svg xmlns="http://www.w3.org/2000/svg" width="11" height="14.939" viewBox="0 0 11 14.939">
  <g id="placeholder-filled-point" transform="translate(-12.883 -2)">
    <path id="Path_1135" data-name="Path 1135" d="M18.383,0a5.506,5.506,0,0,0-5.5,5.5,5.365,5.365,0,0,0,.481,2.245,34.678,34.678,0,0,0,4.787,7.088.306.306,0,0,0,.464,0A34.7,34.7,0,0,0,23.4,7.745,5.363,5.363,0,0,0,23.883,5.5,5.507,5.507,0,0,0,18.383,0Zm0,8.357A2.857,2.857,0,1,1,21.24,5.5,2.86,2.86,0,0,1,18.383,8.357Z" transform="translate(0 2)" fill="#acb5c2"/>
  </g>
</svg>
