<svg xmlns="http://www.w3.org/2000/svg" width="18" height="18" viewBox="0 0 18 18">
  <g id="Path_1147" data-name="Path 1147" fill="#fff" opacity="0.53">
    <path d="M 9 17.5 C 4.313079833984375 17.5 0.5 13.68692016601563 0.5 9 C 0.5 4.313079833984375 4.313079833984375 0.5 9 0.5 C 13.68692016601563 0.5 17.5 4.313079833984375 17.5 9 C 17.5 13.68692016601563 13.68692016601563 17.5 9 17.5 Z" stroke="none"/>
    <path d="M 9 1 C 4.588789939880371 1 1 4.588789939880371 1 9 C 1 13.41121006011963 4.588789939880371 17 9 17 C 13.41121006011963 17 17 13.41121006011963 17 9 C 17 4.588789939880371 13.41121006011963 1 9 1 M 9 0 C 13.97056007385254 0 18 4.029439926147461 18 9 C 18 13.97056007385254 13.97056007385254 18 9 18 C 4.029439926147461 18 0 13.97056007385254 0 9 C 0 4.029439926147461 4.029439926147461 0 9 0 Z" stroke="none" fill="#acb5c2"/>
  </g>
  <g id="Ellipse_4" data-name="Ellipse 4" transform="translate(2 2)" fill="#fff" stroke="#acb5c2" stroke-width="1" opacity="0.66">
    <circle cx="7" cy="7" r="7" stroke="none"/>
    <circle cx="7" cy="7" r="6.5" fill="none"/>
  </g>
  <circle id="Ellipse_5" data-name="Ellipse 5" cx="3" cy="3" r="3" transform="translate(6 6)" fill="#acb5c2"/>
</svg>

